<svg width="128" height="187" viewBox="0 0 128 187" fill="none" xmlns="http://www.w3.org/2000/svg">
<g>
<path d="M63.3694 92.0916L31.745 60.5684C31.7221 60.5456 31.685 60.5456 31.6621 60.5684L0.0377705 92.0916C0.0148757 92.1145 0.0148757 92.1515 0.0377705 92.1743L31.6621 123.697C31.685 123.72 31.7221 123.72 31.745 123.697L63.3694 92.1743C63.3922 92.1515 63.3922 92.1145 63.3694 92.0916Z" fill="#000"/>
<path d="M127.961 154.524L96.3374 123.001C96.3146 122.978 96.2774 122.978 96.2545 123.001L64.6302 154.524C64.6073 154.547 64.6073 154.584 64.6302 154.607L96.2545 186.13C96.2774 186.153 96.3146 186.153 96.3374 186.13L127.961 154.607C127.985 154.584 127.985 154.547 127.961 154.524Z" fill="#000"/>
<path d="M31.7171 130.74H31.7075C17.447 130.74 5.88654 142.264 5.88654 156.48V156.489C5.88654 170.704 17.447 182.227 31.7075 182.227H31.7171C45.9776 182.227 57.538 170.704 57.538 156.489V156.48C57.538 142.264 45.9776 130.74 31.7171 130.74Z" fill="#000"/>
<path d="M31.7171 0H31.7075C17.447 0 5.88654 11.5235 5.88654 25.7384V25.7479C5.88654 39.9628 17.447 51.4863 31.7075 51.4863H31.7171C45.9776 51.4863 57.538 39.9628 57.538 25.7479V25.7384C57.538 11.5235 45.9776 0 31.7171 0Z" fill="#000"/>
<path d="M96.2839 64.4702H96.2743C82.0138 64.4702 70.4533 75.9936 70.4533 90.2085V90.2181C70.4533 104.433 82.0138 115.956 96.2743 115.956H96.2839C110.544 115.956 122.105 104.433 122.105 90.2181V90.2085C122.105 75.9936 110.544 64.4702 96.2839 64.4702Z" fill="#000"/>
</g>
</svg>
